<svg width="24" height="24" viewBox="0 0 24 24" fill="none" xmlns="http://www.w3.org/2000/svg">
<path d="M8.00002 8.2465C8.00254 7.65337 7.80725 7.07633 7.44502 6.60665C7.0828 6.13696 6.57432 5.80145 6.00002 5.65317V3.33317C6.00002 3.15636 5.92978 2.98679 5.80476 2.86177C5.67973 2.73674 5.51016 2.6665 5.33335 2.6665C5.15654 2.6665 4.98697 2.73674 4.86195 2.86177C4.73692 2.98679 4.66669 3.15636 4.66669 3.33317V5.65317C4.08393 5.79273 3.56516 6.12451 3.19404 6.595C2.82293 7.06549 2.62109 7.64726 2.62109 8.2465C2.62109 8.84574 2.82293 9.42752 3.19404 9.898C3.56516 10.3685 4.08393 10.7003 4.66669 10.8398V20.6665C4.66669 20.8433 4.73692 21.0129 4.86195 21.1379C4.98697 21.2629 5.15654 21.3332 5.33335 21.3332C5.51016 21.3332 5.67973 21.2629 5.80476 21.1379C5.92978 21.0129 6.00002 20.8433 6.00002 20.6665V10.8398C6.57432 10.6916 7.0828 10.356 7.44502 9.88636C7.80725 9.41668 8.00254 8.83963 8.00002 8.2465ZM5.33335 9.57984C5.06964 9.57984 4.81186 9.50164 4.59259 9.35513C4.37333 9.20862 4.20243 9.00038 4.10151 8.75675C4.0006 8.51311 3.97419 8.24502 4.02564 7.98638C4.07709 7.72774 4.20407 7.49016 4.39054 7.30369C4.57701 7.11722 4.81459 6.99024 5.07323 6.93879C5.33187 6.88734 5.59996 6.91375 5.8436 7.01466C6.08723 7.11558 6.29547 7.28648 6.44198 7.50574C6.58849 7.72501 6.66669 7.9828 6.66669 8.2465C6.66934 8.42327 6.63681 8.59881 6.57099 8.76289C6.50517 8.92698 6.40738 9.07633 6.2833 9.20227C6.15923 9.32821 6.01134 9.42821 5.84826 9.49646C5.68517 9.56472 5.51014 9.59986 5.33335 9.59984V9.57984Z" fill="#000000"/>
<path d="M21.3333 10.5532C21.3358 9.96004 21.1405 9.383 20.7783 8.91331C20.416 8.44363 19.9076 8.10812 19.3333 7.95984V3.33317C19.3333 3.15636 19.263 2.98679 19.138 2.86177C19.013 2.73674 18.8434 2.6665 18.6666 2.6665C18.4898 2.6665 18.3202 2.73674 18.1952 2.86177C18.0702 2.98679 17.9999 3.15636 17.9999 3.33317V7.95984C17.4172 8.0994 16.8984 8.43118 16.5273 8.90167C16.1562 9.37216 15.9543 9.95393 15.9543 10.5532C15.9543 11.1524 16.1562 11.7342 16.5273 12.2047C16.8984 12.6752 17.4172 13.0069 17.9999 13.1465V20.6665C17.9999 20.8433 18.0702 21.0129 18.1952 21.1379C18.3202 21.2629 18.4898 21.3332 18.6666 21.3332C18.8434 21.3332 19.013 21.2629 19.138 21.1379C19.263 21.0129 19.3333 20.8433 19.3333 20.6665V13.1465C19.9076 12.9982 20.416 12.6627 20.7783 12.193C21.1405 11.7233 21.3358 11.1463 21.3333 10.5532ZM18.6666 11.8865C18.4029 11.8865 18.1451 11.8083 17.9258 11.6618C17.7066 11.5153 17.5357 11.307 17.4348 11.0634C17.3338 10.8198 17.3074 10.5517 17.3589 10.293C17.4103 10.0344 17.5373 9.79683 17.7238 9.61036C17.9103 9.42389 18.1478 9.2969 18.4065 9.24546C18.6651 9.19401 18.9332 9.22041 19.1768 9.32133C19.4205 9.42225 19.6287 9.59314 19.7752 9.81241C19.9217 10.0317 19.9999 10.2895 19.9999 10.5532C20.0035 10.7305 19.9716 10.9067 19.9062 11.0716C19.8408 11.2365 19.7431 11.3866 19.619 11.5133C19.4948 11.6399 19.3466 11.7405 19.1831 11.8092C19.0196 11.8779 18.844 11.9132 18.6666 11.9132V11.8865Z" fill="#000000"/>
<path d="M14.6668 16.3332C14.6693 15.74 14.474 15.163 14.1118 14.6933C13.7495 14.2236 13.2411 13.8881 12.6668 13.7398V3.33317C12.6668 3.15636 12.5965 2.98679 12.4715 2.86177C12.3465 2.73674 12.1769 2.6665 12.0001 2.6665C11.8233 2.6665 11.6537 2.73674 11.5287 2.86177C11.4037 2.98679 11.3334 3.15636 11.3334 3.33317V13.7398C10.7507 13.8794 10.2319 14.2112 9.86079 14.6817C9.48967 15.1522 9.28784 15.7339 9.28784 16.3332C9.28784 16.9324 9.48967 17.5142 9.86079 17.9847C10.2319 18.4552 10.7507 18.7869 11.3334 18.9265V20.6665C11.3334 20.8433 11.4037 21.0129 11.5287 21.1379C11.6537 21.2629 11.8233 21.3332 12.0001 21.3332C12.1769 21.3332 12.3465 21.2629 12.4715 21.1379C12.5965 21.0129 12.6668 20.8433 12.6668 20.6665V18.9265C13.2411 18.7782 13.7495 18.4427 14.1118 17.973C14.474 17.5033 14.6693 16.9263 14.6668 16.3332ZM12.0001 17.6665C11.7364 17.6665 11.4786 17.5883 11.2593 17.4418C11.0401 17.2953 10.8692 17.087 10.7683 16.8434C10.6673 16.5998 10.6409 16.3317 10.6924 16.073C10.7438 15.8144 10.8708 15.5768 11.0573 15.3904C11.2438 15.2039 11.4813 15.0769 11.74 15.0255C11.9986 14.974 12.2667 15.0004 12.5103 15.1013C12.754 15.2022 12.9622 15.3731 13.1087 15.5924C13.2552 15.8117 13.3334 16.0695 13.3334 16.3332C13.3361 16.5099 13.3036 16.6855 13.2377 16.8496C13.1719 17.0136 13.0741 17.163 12.9501 17.2889C12.826 17.4149 12.6781 17.5149 12.515 17.5831C12.3519 17.6514 12.1769 17.6865 12.0001 17.6865V17.6665Z" fill="#000000"/>
</svg>
