<svg width="28" height="28" viewBox="0 0 28 28" fill="none" xmlns="http://www.w3.org/2000/svg">
<path d="M10.8891 3.11133H4.66688C4.25432 3.11133 3.85866 3.27522 3.56694 3.56694C3.27522 3.85866 3.11133 4.25432 3.11133 4.66688V10.8891C3.11133 11.3017 3.27522 11.6973 3.56694 11.989C3.85866 12.2808 4.25432 12.4447 4.66688 12.4447H10.8891C11.3017 12.4447 11.6973 12.2808 11.989 11.989C12.2808 11.6973 12.4447 11.3017 12.4447 10.8891V4.66688C12.4447 4.25432 12.2808 3.85866 11.989 3.56694C11.6973 3.27522 11.3017 3.11133 10.8891 3.11133ZM4.66688 10.8891V4.66688H10.8891V10.8891H4.66688Z" fill="black"/>
<path d="M23.3335 3.11133H17.1113C16.6988 3.11133 16.3031 3.27522 16.0114 3.56694C15.7197 3.85866 15.5558 4.25432 15.5558 4.66688V10.8891C15.5558 11.3017 15.7197 11.6973 16.0114 11.989C16.3031 12.2808 16.6988 12.4447 17.1113 12.4447H23.3335C23.7461 12.4447 24.1418 12.2808 24.4335 11.989C24.7252 11.6973 24.8891 11.3017 24.8891 10.8891V4.66688C24.8891 4.25432 24.7252 3.85866 24.4335 3.56694C24.1418 3.27522 23.7461 3.11133 23.3335 3.11133ZM17.1113 10.8891V4.66688H23.3335V10.8891H17.1113Z" fill="black"/>
<path d="M10.8891 15.5558H4.66688C4.25432 15.5558 3.85866 15.7197 3.56694 16.0114C3.27522 16.3031 3.11133 16.6988 3.11133 17.1113V23.3335C3.11133 23.7461 3.27522 24.1418 3.56694 24.4335C3.85866 24.7252 4.25432 24.8891 4.66688 24.8891H10.8891C11.3017 24.8891 11.6973 24.7252 11.989 24.4335C12.2808 24.1418 12.4447 23.7461 12.4447 23.3335V17.1113C12.4447 16.6988 12.2808 16.3031 11.989 16.0114C11.6973 15.7197 11.3017 15.5558 10.8891 15.5558ZM4.66688 23.3335V17.1113H10.8891V23.3335H4.66688Z" fill="black"/>
<path d="M23.3335 15.5558H17.1113C16.6988 15.5558 16.3031 15.7197 16.0114 16.0114C15.7197 16.3031 15.5558 16.6988 15.5558 17.1113V23.3335C15.5558 23.7461 15.7197 24.1418 16.0114 24.4335C16.3031 24.7252 16.6988 24.8891 17.1113 24.8891H23.3335C23.7461 24.8891 24.1418 24.7252 24.4335 24.4335C24.7252 24.1418 24.8891 23.7461 24.8891 23.3335V17.1113C24.8891 16.6988 24.7252 16.3031 24.4335 16.0114C24.1418 15.7197 23.7461 15.5558 23.3335 15.5558ZM17.1113 23.3335V17.1113H23.3335V23.3335H17.1113Z" fill="black"/>
</svg>
