<svg width="28" height="28" viewBox="0 0 28 28" fill="none" xmlns="http://www.w3.org/2000/svg">
<path d="M4.05263 9.68777C4.91174 9.68777 5.60818 8.99133 5.60818 8.13222C5.60818 7.27311 4.91174 6.57666 4.05263 6.57666C3.19352 6.57666 2.49707 7.27311 2.49707 8.13222C2.49707 8.99133 3.19352 9.68777 4.05263 9.68777Z" fill="#000000"/>
<path d="M4.05263 15.91C4.91174 15.91 5.60818 15.2135 5.60818 14.3544C5.60818 13.4953 4.91174 12.7989 4.05263 12.7989C3.19352 12.7989 2.49707 13.4953 2.49707 14.3544C2.49707 15.2135 3.19352 15.91 4.05263 15.91Z" fill="#000000"/>
<path d="M4.05263 22.1322C4.91174 22.1322 5.60818 21.4358 5.60818 20.5767C5.60818 19.7176 4.91174 19.0211 4.05263 19.0211C3.19352 19.0211 2.49707 19.7176 2.49707 20.5767C2.49707 21.4358 3.19352 22.1322 4.05263 22.1322Z" fill="#000000"/>
<path d="M25.216 7.99999C25.216 7.79371 25.134 7.59588 24.9882 7.45002C24.8423 7.30416 24.6445 7.22222 24.4382 7.22222H7.77818V8.77777H24.4382C24.6445 8.77777 24.8423 8.69583 24.9882 8.54997C25.134 8.4041 25.216 8.20627 25.216 7.99999Z" fill="#000000"/>
<path d="M24.4382 13.4444H7.77818V15H24.4382C24.6445 15 24.8423 14.918 24.9882 14.7722C25.134 14.6263 25.216 14.4285 25.216 14.2222C25.216 14.0159 25.134 13.8181 24.9882 13.6722C24.8423 13.5264 24.6445 13.4444 24.4382 13.4444Z" fill="#000000"/>
<path d="M24.4382 19.6667H7.77818V21.2222H24.4382C24.6445 21.2222 24.8423 21.1403 24.9882 20.9944C25.134 20.8485 25.216 20.6507 25.216 20.4444C25.216 20.2382 25.134 20.0403 24.9882 19.8945C24.8423 19.7486 24.6445 19.6667 24.4382 19.6667Z" fill="#000000"/>
</svg>
