<svg width="24" height="24" viewBox="0 0 24 24" fill="none" xmlns="http://www.w3.org/2000/svg">
    <path fill-rule="evenodd" clip-rule="evenodd" d="M11.5909 4.63636C7.75002 4.63636 4.63636 7.75002 4.63636 11.5909C4.63636 15.4318 7.75002 18.5455 11.5909 18.5455C15.4318 18.5455 18.5455 15.4318 18.5455 11.5909C18.5455 7.75002 15.4318 4.63636 11.5909 4.63636ZM3 11.5909C3 6.84628 6.84628 3 11.5909 3C16.3355 3 20.1818 6.84628 20.1818 11.5909C20.1818 16.3355 16.3355 20.1818 11.5909 20.1818C6.84628 20.1818 3 16.3355 3 11.5909Z" fill="black"/>
    <path fill-rule="evenodd" clip-rule="evenodd" d="M17.9669 17.9669C18.2864 17.6474 18.8045 17.6474 19.124 17.9669L20.7604 19.6033C21.0799 19.9228 21.0799 20.4408 20.7604 20.7604C20.4408 21.0799 19.9228 21.0799 19.6033 20.7604L17.9669 19.124C17.6474 18.8045 17.6474 18.2864 17.9669 17.9669Z" fill="black"/>
</svg>
