<svg width="24" height="24" viewBox="0 0 24 24" fill="none" xmlns="http://www.w3.org/2000/svg">
<path fill-rule="evenodd" clip-rule="evenodd" d="M12 4.63636C10.1571 4.63636 8.66319 6.10161 8.66319 7.90909C8.66319 9.71657 10.1571 11.1818 12 11.1818C13.8429 11.1818 15.3368 9.71657 15.3368 7.90909C15.3368 6.10161 13.8429 4.63636 12 4.63636ZM6.99478 7.90909C6.99478 5.19787 9.2357 3 12 3C14.7643 3 17.0052 5.19787 17.0052 7.90909C17.0052 10.6203 14.7643 12.8182 12 12.8182C9.2357 12.8182 6.99478 10.6203 6.99478 7.90909Z" fill="black"/>
<path fill-rule="evenodd" clip-rule="evenodd" d="M4 20.1818C4 16.4145 7.75349 13.6364 12 13.6364C16.2465 13.6364 20 16.4145 20 20.1818C20 20.6337 19.6265 21 19.1658 21C18.7051 21 18.3316 20.6337 18.3316 20.1818C18.3316 17.6164 15.6617 15.2727 12 15.2727C8.33827 15.2727 5.66841 17.6164 5.66841 20.1818C5.66841 20.6337 5.29492 21 4.8342 21C4.37349 21 4 20.6337 4 20.1818Z" fill="black"/>
</svg>
