<svg width="20" height="20" viewBox="0 0 20 20" fill="none" xmlns="http://www.w3.org/2000/svg">
    <path fill-rule="evenodd" clip-rule="evenodd" d="M12.293 2.29285C12.4805 2.10534 12.7348 2 13 2C13.2652 2 13.5195 2.10534 13.707 2.29285C13.8945 2.48036 13.9998 2.73467 13.9998 2.99985C13.9998 3.26503 13.8945 3.51934 13.707 3.70685L12.414 4.99985H14.5C16.981 4.99985 19 7.24285 19 9.99985C19 12.7568 16.757 14.9998 14 14.9998C13.7348 14.9998 13.4804 14.8945 13.2929 14.707C13.1054 14.5194 13 14.2651 13 13.9998C13 13.7346 13.1054 13.4803 13.2929 13.2927C13.4804 13.1052 13.7348 12.9998 14 12.9998C15.654 12.9998 17 11.6538 17 9.99985C17 8.34585 15.879 6.99985 14.5 6.99985H12.414L13.707 8.29285C13.7999 8.38564 13.8737 8.49584 13.924 8.61716C13.9743 8.73847 14.0002 8.86852 14.0002 8.99985C14.0002 9.13118 13.9743 9.26123 13.924 9.38254C13.8737 9.50386 13.7999 9.61406 13.707 9.70685C13.6143 9.80003 13.5042 9.87398 13.3829 9.92444C13.2615 9.97491 13.1314 10.0009 13 10.0009C12.8686 10.0009 12.7385 9.97491 12.6171 9.92444C12.4958 9.87398 12.3857 9.80003 12.293 9.70685L8.586 5.99985L12.293 2.29285ZM5.5 12.9998C4.121 12.9998 3 11.6538 3 9.99985C3 8.34585 4.346 6.99985 6 6.99985C6.26522 6.99985 6.51957 6.89449 6.70711 6.70696C6.89464 6.51942 7 6.26507 7 5.99985C7 5.73463 6.89464 5.48028 6.70711 5.29274C6.51957 5.10521 6.26522 4.99985 6 4.99985C3.243 4.99985 1 7.24285 1 9.99985C1 12.7568 3.019 14.9998 5.5 14.9998H7.586L6.293 16.2928C6.20016 16.3857 6.12651 16.4959 6.07626 16.6172C6.02601 16.7385 6.00015 16.8685 6.00015 16.9998C6.00015 17.1312 6.02601 17.2612 6.07626 17.3825C6.12651 17.5038 6.20016 17.614 6.293 17.7069C6.48051 17.8944 6.73482 17.9997 7 17.9997C7.1313 17.9997 7.26132 17.9738 7.38263 17.9236C7.50393 17.8733 7.61416 17.7997 7.707 17.7069L11.414 13.9998L7.707 10.2928C7.61421 10.1999 7.50401 10.1262 7.38269 10.0759C7.26138 10.0255 7.13133 9.99965 7 9.99965C6.86867 9.99965 6.73862 10.0255 6.61731 10.0759C6.49599 10.1262 6.38579 10.1999 6.293 10.2928C6.20005 10.3856 6.12632 10.4958 6.07601 10.6172C6.0257 10.7385 5.9998 10.8685 5.9998 10.9998C5.9998 11.1312 6.0257 11.2612 6.07601 11.3825C6.12632 11.5039 6.20005 11.6141 6.293 11.7068L7.586 12.9998H5.5ZM7.00025 10.9996L6.293 10.2928L6.9988 10.9998L7.00025 10.9996ZM18 9.99985C18 9.14317 17.7491 8.29635 17.3013 7.60399C17.7355 8.25988 18 9.08127 18 9.99985ZM2 9.99985C2 10.8565 2.25091 11.7033 2.69866 12.3957C2.26454 11.7398 2 10.9184 2 9.99985Z" fill="#000000"/>
</svg>
