<svg xmlns="http://www.w3.org/2000/svg" width="32" height="32"><path d="M23.658 6.173c-.022.022-3.092.052-6.822.067l-6.783.027-.266.122a1.465 1.465 0 0 0-.737.704c-.154.333-.166 1.398-.019 1.76.124.307.422.62.729.766.239.114.258.114 5.091.129l4.851.015-6.64 6.652c-5.267 5.275-6.668 6.707-6.771 6.918-.186.379-.186.96.001 1.325.17.332.718.88 1.05 1.05.365.187.946.187 1.325.001.211-.103 1.643-1.504 6.918-6.771l6.652-6.64.015 4.851c.015 4.833.015 4.852.129 5.091.146.307.459.605.766.729.341.139 1.365.139 1.706 0 .307-.124.62-.422.766-.729l.114-.24.035-6.8c.02-3.74.052-6.947.071-7.127.032-.289.017-.374-.131-.746-.101-.253-.244-.499-.359-.617-.268-.276-.979-.577-1.363-.577-.158 0-.306.018-.328.04" fill-rule="evenodd"/></svg>