<svg xmlns="http://www.w3.org/2000/svg" width="30" height="32"><path d="M19.323 1.444c-.259.118-.438.333-.569.682-.204.545-.097 1.035.28 1.28.105.068.461.233.791.366A14.972 14.972 0 0 1 23.45 5.88c.546.437 1.683 1.574 2.12 2.12a15.25 15.25 0 0 1 2.163 3.743c.15.374.318.752.372.841a.916.916 0 0 0 .632.395c.276.044.828-.126 1.076-.331l.187-.155v-.617c0-.587-.008-.638-.18-1.083-1.225-3.189-3.707-6.111-6.766-7.965-1.201-.729-2.96-1.483-3.444-1.477a1.094 1.094 0 0 0-.287.093m-13.198.189a5.48 5.48 0 0 0-.725.224c-.747.297-1.039.526-2.416 1.89C1.61 5.106 1.318 5.451 1.006 6.08.539 7.021.377 7.887.414 9.246c.027.974.09 1.428.336 2.404 1.844 7.319 10.325 16.22 17.95 18.84 2.748.944 5.015.996 6.784.155.225-.107.439-.183.476-.169.09.035 3.115-3.015 3.349-3.376a4.74 4.74 0 0 0 .566-1.18c.116-.355.125-.453.125-1.357 0-1.065-.034-1.278-.306-1.92-.303-.717-.523-.98-2.415-2.885-.992-.999-1.932-1.916-2.088-2.037a5.11 5.11 0 0 0-2.041-.924 5.971 5.971 0 0 0-.875-.061c-.807 0-1.336.122-2.037.469-.483.238-.788.463-1.372 1.01-.489.458-.63.523-1.018.471-.243-.032-.411-.155-1.338-.976-1.394-1.234-3.367-3.349-3.54-3.795a.8.8 0 0 1-.047-.442c.03-.2.09-.29.462-.689.771-.826 1.137-1.426 1.365-2.234.135-.478.187-1.445.104-1.924a5.491 5.491 0 0 0-.613-1.702c-.239-.409-.439-.626-2.239-2.43C10.286 2.775 9.969 2.479 9.6 2.255a4.973 4.973 0 0 0-1.56-.626c-.483-.099-1.44-.097-1.915.004m1.35 2.218c.221.031.488.117.725.232.349.17.496.304 2.108 1.912 1.14 1.138 1.801 1.836 1.932 2.041.281.441.377.836.352 1.45-.028.694-.17.972-.885 1.732-.828.88-1.073 1.436-1.072 2.432.001.628.149 1.156.457 1.629.436.668 2.088 2.476 3.233 3.537 2.033 1.885 2.504 2.16 3.7 2.158 1.019 0 1.53-.237 2.483-1.15.318-.305.581-.509.772-.599.647-.306 1.42-.287 2.112.052.359.176.494.299 2.162 1.968 1.576 1.578 1.798 1.82 1.957 2.13.372.73.384 1.54.034 2.239-.132.263-2.418 2.581-2.77 2.809-1.446.937-4.09.617-7.2-.87-2.626-1.256-5.304-3.225-7.825-5.753-3.648-3.658-6.199-7.808-6.902-11.225-.204-.994-.212-2.144-.021-2.882.173-.667.291-.824 1.66-2.201C5.865 4.105 6.07 3.95 6.65 3.856c.376-.061.425-.061.825-.005m11.85 2.757c-.449.248-.796.993-.674 1.446.086.32.301.51.96.852.336.174.785.446.999.605a6.793 6.793 0 0 1 2.037 2.51c.113.246.264.524.336.618.147.193.466.358.695.36.27.002.755-.196.993-.406.389-.342.416-.698.105-1.413-.827-1.902-2.376-3.484-4.301-4.394-.411-.194-.549-.236-.775-.235-.151.001-.32.027-.375.057" fill-rule="evenodd"/></svg>