<svg width="23" height="21" viewBox="0 0 23 21" fill="none" xmlns="http://www.w3.org/2000/svg">
<path d="M19.9675 7.14513C19.8356 7.14513 19.7439 7.14513 19.6522 7.14513C16.2923 7.14513 12.9324 7.14513 9.56677 7.14513C9.02781 7.14513 8.69526 6.87392 8.62073 6.38082C8.54046 5.88155 8.89594 5.39461 9.36609 5.36379C9.42343 5.35762 9.48077 5.35762 9.5381 5.35762C13.3452 5.35762 17.1466 5.35762 20.9537 5.35762C21.4525 5.35762 21.7965 5.62883 21.8596 6.10961C21.8825 6.2637 21.8539 6.43013 21.8195 6.58422C21.2805 8.91414 20.7415 11.2441 20.1968 13.5678C19.8758 14.9547 18.9297 15.7498 17.5995 15.7498C14.9907 15.7498 12.382 15.7498 9.77318 15.7498C8.46592 15.7498 7.53708 14.9917 7.18733 13.6418C6.32729 10.3072 5.46152 6.97254 4.60148 3.63792C4.44667 3.04619 4.1944 2.83662 3.6325 2.83662C3.02474 2.83662 2.41125 2.84895 1.80349 2.8243C1.39641 2.81197 1.09252 2.4668 1.04666 2.023C1.00079 1.61619 1.2588 1.20938 1.63722 1.09227C1.72322 1.06761 1.82069 1.05528 1.91243 1.05528C2.52592 1.05528 3.14515 1.04296 3.75864 1.05528C4.95123 1.07378 5.86287 1.83809 6.18395 3.07701C6.64837 4.85219 7.10133 6.63353 7.56001 8.41487C7.97283 10.0051 8.38565 11.6016 8.79847 13.1918C8.94181 13.7404 9.21702 13.9623 9.75024 13.9623C12.3705 13.9623 14.9965 13.9623 17.6167 13.9623C18.1557 13.9623 18.4366 13.7219 18.5685 13.161C19.0157 11.2379 19.4629 9.30862 19.9102 7.38552C19.9331 7.31771 19.9446 7.24991 19.9675 7.14513Z" fill="#000000"/>
<path d="M16.1305 16.7999C16.9831 16.7931 17.6891 17.4998 17.7024 18.3613C17.7157 19.2296 17.003 19.9565 16.1372 19.9498C15.2846 19.9498 14.5853 19.243 14.5786 18.3815C14.5786 17.52 15.278 16.8066 16.1305 16.7999Z" fill="#000000"/>
<path d="M12.4959 18.3681C12.4959 19.2363 11.8069 19.9363 10.944 19.9498C10.0743 19.9565 9.37195 19.2498 9.37195 18.3681C9.37195 17.4998 10.0743 16.7999 10.9306 16.7999C11.7935 16.7931 12.4959 17.4998 12.4959 18.3681Z" fill="#000000"/>
</svg>
