<!-- Generated by IcoMoon.io -->
<svg version="1.1" xmlns="http://www.w3.org/2000/svg" width="40" height="32" viewBox="0 0 40 32">
<title>check-fill</title>
<path d="M33.782 2.893c0.691-0.579 1.611-0.899 2.565-0.893s1.869 0.339 2.55 0.927c0.681 0.588 1.076 1.386 1.101 2.225s-0.321 1.654-0.966 2.273l-19.578 21.54c-0.337 0.319-0.743 0.575-1.195 0.753s-0.939 0.273-1.434 0.281c-0.495 0.008-0.986-0.072-1.445-0.235s-0.876-0.405-1.226-0.713l-12.984-11.422c-0.362-0.296-0.652-0.654-0.853-1.051s-0.309-0.826-0.318-1.261c-0.009-0.435 0.082-0.866 0.267-1.27s0.461-0.769 0.81-1.077 0.766-0.55 1.224-0.713c0.458-0.163 0.949-0.243 1.443-0.235s0.981 0.103 1.433 0.28c0.451 0.177 0.858 0.432 1.195 0.75l10.275 9.035 17.042-19.101c0.031-0.033 0.059-0.065 0.093-0.095z"></path>
</svg>
