<svg width="20" height="20" fill="none" xmlns="http://www.w3.org/2000/svg"><path d="M9.267 2.535C6.215 2.828 3.201 5.003.814 8.633.5 9.111 0 9.95 0 10c0 .05.5.889.814 1.367C2.08 13.293 3.57 14.863 5.117 15.9c1.172.787 2.314 1.262 3.583 1.491.436.079.564.088 1.3.088.736 0 .864-.009 1.3-.088 1.269-.229 2.411-.704 3.583-1.491 1.547-1.037 3.037-2.607 4.303-4.533C19.5 10.889 20 10.05 20 10c0-.05-.5-.889-.814-1.367-2.135-3.247-4.84-5.386-7.525-5.951-.71-.149-1.725-.212-2.394-.147m1.516 1.902c2.044.251 4.154 1.693 6.068 4.146.157.202.444.603.638.891l.353.525-.284.425c-1.488 2.234-3.308 3.907-5.068 4.661-.862.369-1.61.527-2.49.527-.853 0-1.574-.147-2.42-.495-1.767-.726-3.649-2.449-5.163-4.725l-.26-.391.213-.324a20.49 20.49 0 0 1 1.107-1.508c.445-.552 1.572-1.676 2.056-2.05 1.784-1.38 3.426-1.905 5.25-1.682M9.297 6.318c-1.023.186-2.013.888-2.535 1.8a3.747 3.747 0 0 0 1.592 5.244c.516.257 1.05.378 1.663.376a3.65 3.65 0 0 0 2.623-1.093A3.664 3.664 0 0 0 13.741 10c0-.35-.075-.914-.136-1.024-.016-.028-.072.03-.165.171a1.942 1.942 0 0 1-1.588.853 1.916 1.916 0 0 1-1.236-.506 1.83 1.83 0 0 1-.415-2.18 1.79 1.79 0 0 1 .653-.755c.198-.13.208-.143.138-.17-.309-.119-1.219-.157-1.695-.071" fill="#000000"/></svg>