<svg width="28" height="12" viewBox="0 0 28 12" fill="none" xmlns="http://www.w3.org/2000/svg">
<path fill-rule="evenodd" clip-rule="evenodd" d="M-1.90735e-06 6C-1.90735e-06 5.82321 0.064827 5.65367 0.180227 5.52866C0.295626 5.40366 0.452145 5.33343 0.615343 5.33343H25.8981L22.0251 1.13935C21.9679 1.07737 21.9225 1.0038 21.8916 0.922824C21.8606 0.84185 21.8447 0.755061 21.8447 0.667415C21.8447 0.579769 21.8606 0.492981 21.8916 0.412006C21.9225 0.331032 21.9679 0.257456 22.0251 0.195481C22.0823 0.133506 22.1503 0.0843448 22.225 0.050804C22.2998 0.0172633 22.3799 0 22.4608 0C22.5417 0 22.6218 0.0172633 22.6966 0.050804C22.7713 0.0843448 22.8392 0.133506 22.8965 0.195481L27.8192 5.52807C27.8765 5.58998 27.922 5.66354 27.953 5.74452C27.984 5.82551 28 5.91232 28 6C28 6.08768 27.984 6.17449 27.953 6.25548C27.922 6.33646 27.8765 6.41002 27.8192 6.47193L22.8965 11.8045C22.8392 11.8665 22.7713 11.9157 22.6966 11.9492C22.6218 11.9827 22.5417 12 22.4608 12C22.3799 12 22.2998 11.9827 22.225 11.9492C22.1503 11.9157 22.0823 11.8665 22.0251 11.8045C21.9679 11.7425 21.9225 11.669 21.8916 11.588C21.8606 11.507 21.8447 11.4202 21.8447 11.3326C21.8447 11.2449 21.8606 11.1582 21.8916 11.0772C21.9225 10.9962 21.9679 10.9226 22.0251 10.8607L25.8981 6.66657H0.615343C0.452145 6.66657 0.295626 6.59635 0.180227 6.47134C0.064827 6.34633 -1.90735e-06 6.17679 -1.90735e-06 6Z" fill="black"/>
</svg>
