<svg width="28" height="12" viewBox="0 0 28 12" fill="none" xmlns="http://www.w3.org/2000/svg">
<path fill-rule="evenodd" clip-rule="evenodd" d="M28 6C28 5.82321 27.9352 5.65367 27.8198 5.52866C27.7044 5.40366 27.5479 5.33343 27.3847 5.33343H2.10189L5.97487 1.13935C6.03209 1.07737 6.07747 1.0038 6.10843 0.922824C6.13939 0.84185 6.15533 0.755061 6.15533 0.667415C6.15533 0.579769 6.13939 0.492981 6.10843 0.412006C6.07747 0.331032 6.03209 0.257456 5.97487 0.195481C5.91766 0.133506 5.84974 0.0843448 5.77499 0.050804C5.70024 0.0172633 5.62012 0 5.53921 0C5.4583 0 5.37818 0.0172633 5.30343 0.050804C5.22868 0.0843448 5.16076 0.133506 5.10354 0.195481L0.180781 5.52807C0.123476 5.58998 0.0780106 5.66354 0.0469893 5.74452C0.015968 5.82551 0 5.91232 0 6C0 6.08768 0.015968 6.17449 0.0469893 6.25548C0.0780106 6.33646 0.123476 6.41002 0.180781 6.47193L5.10354 11.8045C5.16076 11.8665 5.22868 11.9157 5.30343 11.9492C5.37818 11.9827 5.4583 12 5.53921 12C5.62012 12 5.70024 11.9827 5.77499 11.9492C5.84974 11.9157 5.91766 11.8665 5.97487 11.8045C6.03209 11.7425 6.07747 11.669 6.10843 11.588C6.13939 11.507 6.15533 11.4202 6.15533 11.3326C6.15533 11.2449 6.13939 11.1582 6.10843 11.0772C6.07747 10.9962 6.03209 10.9226 5.97487 10.8607L2.10189 6.66657H27.3847C27.5479 6.66657 27.7044 6.59635 27.8198 6.47134C27.9352 6.34633 28 6.17679 28 6Z" fill="black"/>
</svg>
