<!-- Generated by IcoMoon.io -->
<svg version="1.1" xmlns="http://www.w3.org/2000/svg" width="34" height="32" viewBox="0 0 34 32">
<title>message-square</title>
<path d="M4 30.019v0zM8.308 26.573v0zM2.667 9.143c0-3.577 2.9-6.476 6.476-6.476v-2.286c-4.839 0-8.762 3.923-8.762 8.762h2.286zM2.667 17.524v-8.381h-2.286v8.381h2.286zM2.667 18.286v-0.762h-2.286v0.762h2.286zM2.667 28.83v-10.544h-2.286v10.544h2.286zM3.286 29.127c-0.249 0.199-0.619 0.022-0.619-0.297h-2.286c0 2.236 2.586 3.479 4.333 2.082l-1.428-1.785zM7.594 25.68l-4.309 3.447 1.428 1.785 4.309-3.447-1.428-1.785zM24.381 24.762h-14.169v2.286h14.169v-2.286zM30.857 18.286c0 3.577-2.899 6.476-6.476 6.476v2.286c4.839 0 8.762-3.923 8.762-8.762h-2.286zM30.857 9.143v9.143h2.286v-9.143h-2.286zM24.381 2.667c3.577 0 6.476 2.9 6.476 6.476h2.286c0-4.839-3.923-8.762-8.762-8.762v2.286zM9.143 2.667h15.238v-2.286h-15.238v2.286zM9.022 27.465c0.338-0.27 0.757-0.417 1.19-0.417v-2.286c-0.952 0-1.875 0.324-2.618 0.918l1.428 1.785z"></path>
<path d="M11.124 13.79c0 1.052-0.853 1.905-1.905 1.905s-1.905-0.853-1.905-1.905c0-1.052 0.853-1.905 1.905-1.905s1.905 0.853 1.905 1.905z"></path>
<path d="M18.743 13.79c0 1.052-0.853 1.905-1.905 1.905s-1.905-0.853-1.905-1.905c0-1.052 0.853-1.905 1.905-1.905s1.905 0.853 1.905 1.905z"></path>
<path d="M26.362 13.79c0 1.052-0.853 1.905-1.905 1.905s-1.905-0.853-1.905-1.905c0-1.052 0.853-1.905 1.905-1.905s1.905 0.853 1.905 1.905z"></path>
</svg>
