<!-- Generated by IcoMoon.io -->
<svg version="1.1" xmlns="http://www.w3.org/2000/svg" width="32" height="32" viewBox="0 0 32 32">
<title>money-back</title>
<path d="M30.814 16c0 7.527-6.086 13.63-13.592 13.63s-13.592-6.103-13.592-13.63c0-0.122 0.040-0.244 0.081-0.325l-1.339 1.343c-0.122 0.122-0.325 0.203-0.487 0.203s-0.365-0.081-0.487-0.203c-0.284-0.285-0.284-0.732 0-0.977l2.475-2.482c0.081-0.081 0.162-0.122 0.243-0.163 0.203-0.081 0.446-0.081 0.649 0.081 0.040 0.041 0.081 0.041 0.122 0.081l2.475 2.482c0.284 0.285 0.284 0.732 0 0.977-0.122 0.122-0.325 0.203-0.487 0.203s-0.365-0.081-0.487-0.203l-1.339-1.343c0.040 0.081 0.081 0.203 0.081 0.325 0 6.754 5.478 12.246 12.213 12.246s12.213-5.493 12.213-12.246c0-6.754-5.478-12.246-12.213-12.246-3.327 0-6.411 1.302-8.723 3.703-0.284 0.285-0.73 0.285-0.974 0-0.284-0.285-0.284-0.732 0-0.977 2.597-2.644 6.046-4.109 9.738-4.109 7.344-0.001 13.43 6.102 13.43 13.629l-0 0zM17.222 8.636c-0.365 0-0.69 0.325-0.69 0.692v1.465h-0.325c-1.623 0-2.921 1.302-2.921 2.929s1.299 2.929 2.921 2.929h2.029c0.852 0 1.542 0.692 1.542 1.546s-0.69 1.546-1.542 1.546h-3.692c-0.365 0-0.69 0.326-0.69 0.692s0.325 0.692 0.69 0.692h1.947v1.465c0 0.366 0.325 0.692 0.69 0.692s0.69-0.326 0.69-0.692v-1.465h0.324c1.623 0 2.921-1.302 2.921-2.929s-1.299-2.929-2.921-2.929h-2.029c-0.852 0-1.542-0.692-1.542-1.546s0.69-1.546 1.542-1.546h3.611c0.365 0 0.69-0.325 0.69-0.692s-0.325-0.692-0.69-0.692h-1.867v-1.465c0.041-0.366-0.284-0.692-0.689-0.692z"></path>
</svg>
