<!-- Generated by IcoMoon.io -->
<svg version="1.1" xmlns="http://www.w3.org/2000/svg" width="32" height="32" viewBox="0 0 32 32">
<title>money</title>
<path d="M19.744 7.642c0 0.465-0.374 0.842-0.834 0.842s-0.835-0.377-0.835-0.842c0-0.488-0.196-0.93-0.512-1.249-0.118-0.119-0.254-0.222-0.403-0.303v4.074c1.357 0.667 2.585 1.472 2.585 3.579 0 0.952-0.384 1.816-1.002 2.441-0.43 0.434-0.973 0.753-1.583 0.908v0.394c0 0.465-0.374 0.842-0.835 0.842s-0.835-0.377-0.835-0.842v-0.394c-0.609-0.155-1.153-0.474-1.583-0.908-0.619-0.625-1.002-1.488-1.002-2.441 0-0.465 0.374-0.842 0.835-0.842s0.835 0.377 0.835 0.842c0 0.488 0.196 0.93 0.512 1.25 0.118 0.119 0.254 0.222 0.403 0.303v-4.076c-1.356-0.667-2.585-1.472-2.585-3.579 0-0.952 0.384-1.816 1.002-2.44 0.432-0.434 0.976-0.752 1.583-0.907v-0.394c0-0.465 0.374-0.842 0.835-0.842s0.834 0.377 0.834 0.842v0.394c0.609 0.155 1.153 0.474 1.583 0.908 0.619 0.625 1.002 1.487 1.002 2.44v-0.001zM4.986 15.042c0.068 0.46-0.245 0.889-0.701 0.957s-0.88-0.248-0.949-0.708c-0.049-0.326-0.088-0.663-0.114-1.010-0.026-0.346-0.039-0.686-0.039-1.017 0-3.662 1.472-6.978 3.85-9.379s5.664-3.885 9.292-3.885c3.628 0 6.915 1.485 9.293 3.885s3.85 5.716 3.85 9.38c0 0.331-0.014 0.671-0.039 1.017-0.026 0.347-0.065 0.685-0.114 1.010-0.068 0.46-0.494 0.777-0.949 0.708-0.456-0.069-0.769-0.498-0.701-0.957 0.045-0.297 0.080-0.595 0.101-0.886 0.021-0.283 0.032-0.581 0.032-0.892 0-3.198-1.284-6.093-3.36-8.189s-4.945-3.391-8.113-3.391c-3.169 0-6.037 1.296-8.112 3.391s-3.36 4.99-3.36 8.188c0 0.31 0.011 0.609 0.032 0.892 0.022 0.29 0.056 0.587 0.101 0.886h0zM11.595 25.011c-0.454-0.080-0.757-0.517-0.678-0.974s0.512-0.764 0.965-0.685l3.647 0.65c0.42 0.075 0.805 0.111 1.175 0.111 0.378-0.001 0.761-0.039 1.171-0.114l3.58-0.655c0.594-0.108 0.922-0.481 1.013-0.898 0.083-0.38-0.007-0.807-0.252-1.111-0.285-0.355-0.816-0.55-1.579-0.343l-0.811 0.221c-0.832 0.226-1.645 0.325-2.458 0.296-0.81-0.029-1.614-0.187-2.433-0.475l-2.773-0.974c-0.757-0.266-1.499-0.396-2.236-0.391-0.731 0.005-1.471 0.147-2.226 0.425l-5.995 2.204 0.521 7.57 1.959-0.951c0.733-0.356 1.459-0.595 2.206-0.723 0.746-0.128 1.509-0.145 2.313-0.055l2.203 0.256c8.739 1.034 12.391 1.466 19.013-7.104 0.342-0.442 0.453-0.845 0.403-1.168-0.026-0.167-0.102-0.319-0.213-0.444-0.116-0.13-0.275-0.231-0.462-0.291-0.371-0.118-0.842-0.074-1.332 0.207l-4.158 2.392c0.015 0.273-0.006 0.55-0.065 0.819-0.227 1.029-0.988 1.939-2.344 2.188l-3.58 0.655c-0.504 0.092-0.983 0.14-1.465 0.141-0.489 0.001-0.967-0.043-1.462-0.131l-3.645-0.649zM1.894 31.89c-0.106 0.062-0.227 0.099-0.357 0.108-0.459 0.030-0.856-0.319-0.886-0.783l-0.649-9.435c-0.023-0.364 0.191-0.715 0.548-0.846l6.586-2.422c0.93-0.342 1.855-0.517 2.787-0.524 0.927-0.007 1.853 0.154 2.79 0.483l2.773 0.974c0.661 0.231 1.303 0.36 1.944 0.382 0.638 0.023 1.289-0.059 1.969-0.244l0.811-0.221c1.504-0.409 2.633 0.078 3.301 0.909 0.028 0.035 0.056 0.071 0.082 0.107l3.904-2.245c0.929-0.534 1.876-0.602 2.657-0.352 0.471 0.151 0.883 0.418 1.198 0.772 0.32 0.359 0.538 0.807 0.617 1.313 0.117 0.751-0.083 1.614-0.735 2.458-7.197 9.317-11.123 8.853-20.512 7.742l-2.196-0.256c-0.652-0.073-1.265-0.061-1.857 0.040-0.594 0.101-1.174 0.294-1.762 0.578l-3.012 1.46zM15.489 6.088c-0.149 0.082-0.286 0.184-0.405 0.303-0.314 0.32-0.511 0.763-0.511 1.251 0 0.779 0.382 1.27 0.915 1.646l0-3.2zM17.159 15.297c0.149-0.082 0.284-0.184 0.403-0.303 0.316-0.319 0.512-0.761 0.512-1.25 0-0.779-0.382-1.27-0.915-1.646v3.199l0.001 0z"></path>
</svg>
