<!-- Generated by IcoMoon.io -->
<svg version="1.1" xmlns="http://www.w3.org/2000/svg" width="32" height="32" viewBox="0 0 32 32">
<title>opinion</title>
<path fill="#fff" d="M3.358 16.312h2.137c1.381 1.361 3.337 2.85 3.423 2.916l1.081 0.821 0.33-3.737h18.313c1.851 0 3.358-1.451 3.358-3.236l0.001-9.841c0-1.784-1.506-3.236-3.358-3.236h-25.285c-1.851 0-3.358 1.451-3.358 3.236v9.841c0.001 1.784 1.506 3.235 3.358 3.235l-0 0zM1.483 3.236c0-0.996 0.841-1.807 1.875-1.807h25.285c1.034 0 1.875 0.81 1.875 1.807v9.841c0 0.996-0.841 1.807-1.875 1.807h-19.675l-0.209 2.369c-0.734-0.598-1.697-1.416-2.408-2.144l-0.22-0.225h-2.773c-1.034 0-1.875-0.81-1.875-1.807v-9.841h-0z"></path>
<path fill="#fff" d="M12.873 7.982c0 0.674-0.567 1.221-1.267 1.221s-1.267-0.547-1.267-1.221 0.567-1.221 1.267-1.221c0.7 0 1.267 0.547 1.267 1.221z"></path>
<path fill="#fff" d="M17.804 7.982c0 0.674-0.567 1.221-1.267 1.221s-1.267-0.547-1.267-1.221 0.567-1.221 1.267-1.221c0.7 0 1.267 0.547 1.267 1.221z"></path>
<path fill="#fff" d="M22.735 7.982c0 0.674-0.567 1.221-1.267 1.221s-1.267-0.547-1.267-1.221 0.567-1.221 1.267-1.221c0.7 0 1.267 0.547 1.267 1.221z"></path>
<path fill="#fff" d="M22.772 21.424c0-2.189-1.841-3.962-4.111-3.962s-4.112 1.774-4.112 3.962c0 2.188 1.841 3.962 4.112 3.962s4.111-1.774 4.111-3.962zM16.032 21.424c0-1.397 1.179-2.533 2.629-2.533s2.628 1.136 2.628 2.533c0 1.397-1.179 2.533-2.628 2.533s-2.629-1.136-2.629-2.533z"></path>
<path fill="#fff" d="M11.389 32h1.483c0-2.135 1.802-3.872 4.017-3.872h3.542c2.216 0 4.017 1.737 4.017 3.872h1.483c0-2.923-2.467-5.301-5.5-5.301h-3.542c-3.032 0-5.5 2.378-5.5 5.301h-0z"></path>
</svg>
