<svg xmlns="http://www.w3.org/2000/svg" width="30" height="32"><path d="M8.75.804a7.046 7.046 0 0 0-2.121.565C4.087 2.558 2.53 5.051 2.126 8.58c-.07.609-.078 1.506-.063 7.22.017 7.151.002 6.769.321 8.125.764 3.248 2.724 5.449 5.434 6.102 2.051.494 4.447.009 6.709-1.359 1.386-.838 9.013-5.707 9.456-6.038 2.024-1.508 3.4-3.567 3.815-5.708.32-1.651.096-3.269-.672-4.847-.75-1.541-1.929-2.881-3.501-3.981-.643-.45-9.067-5.765-9.555-6.03-1.41-.762-2.566-1.132-3.945-1.262C9.522.745 9.446.745 8.75.804m1.485 4.625c.454.094.994.3 1.54.59.4.213 8.569 5.366 9.272 5.85.469.322 1.182.997 1.494 1.413.511.682.81 1.501.808 2.213-.002 1.32-.913 2.687-2.499 3.754-.68.457-8.692 5.517-9.05 5.715-1.462.81-2.886.893-3.717.215-.683-.556-1.131-1.51-1.366-2.905-.086-.513-.092-.952-.092-6.724 0-6.622.001-6.654.257-7.65.148-.577.533-1.383.827-1.732.272-.324.75-.646 1.098-.739.358-.097.962-.097 1.428 0" fill-rule="evenodd"/></svg>