<!-- Generated by IcoMoon.io -->
<svg version="1.1" xmlns="http://www.w3.org/2000/svg" width="32" height="32" viewBox="0 0 32 32">
<title>prime_paperclip</title>
<path d="M11.92 27.653c-1.977 0.008-3.883-0.736-5.333-2.080-0.706-0.653-1.269-1.445-1.655-2.326s-0.584-1.832-0.584-2.794c0-0.962 0.199-1.913 0.584-2.794s0.949-1.673 1.655-2.326l10.080-9.52c1.037-0.946 2.39-1.471 3.793-1.471s2.756 0.525 3.793 1.471c0.541 0.502 0.974 1.108 1.274 1.781s0.461 1.401 0.473 2.139c0.004 0.637-0.125 1.268-0.377 1.854s-0.623 1.112-1.089 1.546l-10.093 9.533c-0.609 0.565-1.409 0.879-2.24 0.879s-1.631-0.314-2.24-0.879c-0.302-0.278-0.543-0.617-0.708-0.993s-0.25-0.783-0.25-1.194c0-0.411 0.085-0.817 0.25-1.194s0.406-0.714 0.708-0.993l9.333-8.787c0.188-0.187 0.442-0.292 0.707-0.292s0.519 0.105 0.707 0.292c0.187 0.188 0.293 0.442 0.293 0.707s-0.105 0.519-0.293 0.707l-9.333 8.787c-0.105 0.091-0.189 0.204-0.246 0.331s-0.087 0.264-0.087 0.403c0 0.139 0.030 0.276 0.087 0.403s0.141 0.239 0.246 0.33c0.242 0.207 0.549 0.32 0.867 0.32s0.625-0.114 0.867-0.32l10.093-9.507c0.257-0.252 0.46-0.553 0.598-0.885s0.206-0.689 0.202-1.048c-0.011-0.463-0.116-0.92-0.308-1.341s-0.468-0.8-0.811-1.112c-0.658-0.61-1.522-0.949-2.42-0.949s-1.762 0.339-2.42 0.949l-10.040 9.507c-0.508 0.466-0.914 1.032-1.192 1.664s-0.421 1.313-0.421 2.003c0 0.69 0.143 1.372 0.421 2.003s0.684 1.198 1.192 1.664c1.086 1.012 2.515 1.575 4 1.575s2.914-0.563 4-1.575l9.987-9.453c0.092-0.094 0.202-0.169 0.323-0.221s0.252-0.078 0.384-0.078c0.132 0 0.262 0.026 0.383 0.078s0.231 0.126 0.323 0.221c0.187 0.188 0.293 0.442 0.293 0.707s-0.105 0.519-0.293 0.707l-10.067 9.493c-1.469 1.364-3.408 2.11-5.413 2.080z"></path>
</svg>
