<!-- Generated by IcoMoon.io -->
<svg version="1.1" xmlns="http://www.w3.org/2000/svg" width="32" height="32" viewBox="0 0 32 32">
<title>rocket</title>
<path d="M26.422 18.34c4.904-6.119 6.717-15.795 4.869-17.644-1.777-1.779-11.408-0.142-17.627 4.873l-2.452-0.534c-1.386-0.32-2.807 0.035-3.909 0.925l-4.549 3.7c-0.533 0.427-0.782 1.138-0.604 1.814 0.142 0.676 0.675 1.209 1.35 1.352l3.767 0.889c-0.142 0.32-0.249 0.64-0.355 0.961s-0.035 0.676 0.213 0.925l8.6 8.609-1.351 1.387-7.96-7.968c0.355-0.356 0.355-0.925 0-1.281s-0.924-0.356-1.279 0c-0.355 0.356-0.533 0.783-0.533 1.281s0.178 0.925 0.533 1.281l7.96 7.969c0.355 0.356 0.817 0.533 1.279 0.533s0.924-0.178 1.279-0.533l1.883-1.885c0.249-0.071 0.462-0.178 0.711-0.285l0.888 3.771c0.178 0.676 0.675 1.209 1.351 1.352 0.142 0.035 0.284 0.035 0.426 0.035 0.533 0 1.031-0.249 1.386-0.676l3.696-4.553c0.888-1.103 1.244-2.526 0.924-3.913l-0.497-2.383zM3.927 11.083l4.549-3.7c0.675-0.534 1.528-0.747 2.381-0.569l1.173 0.249c-1.599 1.636-2.95 3.344-3.909 5.016l-4.193-0.996zM24.61 23.534l-3.696 4.553-0.995-4.197c1.244-0.711 2.523-1.637 3.803-2.775 0.391-0.32 0.426-0.889 0.071-1.281-0.32-0.391-0.888-0.427-1.279-0.071-1.777 1.565-3.66 2.775-5.26 3.415l-8.423-8.466c0.782-1.992 2.452-4.376 4.584-6.51 5.686-5.692 15.459-7.044 16.561-6.261 0.746 1.032-0.284 9.64-5.259 15.581-0.178 0.213-0.249 0.498-0.178 0.783l0.64 2.881c0.178 0.818 0 1.707-0.568 2.348h0zM19.954 16.917c-1.315 0-2.523-0.498-3.447-1.423-1.919-1.921-1.919-5.016 0-6.901 0.924-0.925 2.132-1.423 3.447-1.423s2.523 0.498 3.447 1.423c0.924 0.925 1.421 2.135 1.421 3.451s-0.497 2.526-1.421 3.451-2.168 1.423-3.447 1.423zM19.954 8.948c-0.817 0-1.599 0.32-2.168 0.889-1.208 1.209-1.208 3.166 0 4.34 0.569 0.569 1.351 0.889 2.168 0.889s1.599-0.32 2.168-0.889 0.888-1.352 0.888-2.17c0-0.818-0.32-1.601-0.888-2.17-0.604-0.569-1.351-0.889-2.168-0.889zM0.906 25.668c-0.249 0-0.462-0.071-0.64-0.249-0.355-0.356-0.355-0.925 0-1.281l3.447-3.451c0.355-0.356 0.924-0.356 1.279 0s0.355 0.925 0 1.281l-3.447 3.451c-0.142 0.143-0.391 0.249-0.64 0.249zM1.368 31.537c-0.249 0-0.462-0.071-0.64-0.249-0.355-0.356-0.355-0.925 0-1.281l6.148-6.19c0.355-0.356 0.924-0.356 1.279 0s0.355 0.925 0 1.281l-6.148 6.154c-0.178 0.178-0.391 0.285-0.64 0.285v0zM7.232 32c-0.249 0-0.462-0.071-0.64-0.249-0.355-0.356-0.355-0.925 0-1.281l3.447-3.451c0.355-0.356 0.924-0.356 1.279 0s0.355 0.925 0 1.281l-3.447 3.451c-0.178 0.143-0.391 0.249-0.64 0.249z"></path>
</svg>
