<svg xmlns="http://www.w3.org/2000/svg" width="1024" height="1024"><path d="M490.667 54.009c-175.765 8.287-333.383 117.999-400.84 279.01-15.712 37.502-25.664 73.055-32.046 114.481-5.381 34.926-5.381 94.074 0 129 15.651 101.595 59.363 188.766 130.158 259.561 72.056 72.056 160.232 115.616 265.181 131.004 30.726 4.505 91.038 4.118 122.88-.789 55.881-8.611 119.801-29.48 130.978-42.763 12.368-14.698 9.106-36.284-7.029-46.517-11.229-7.121-21.177-6.71-42.421 1.753-51.56 20.539-99.334 28.698-158.228 27.022-60.349-1.717-106.684-13.267-162.233-40.439-73.424-35.916-135.441-96.289-173.982-169.369C89.62 556.66 106.323 385.87 205.363 263.68c13.432-16.571 43.729-46.757 60.024-59.803C398.8 97.061 588.446 88.752 730.338 183.507c23.139 15.452 37.51 27.254 58.727 48.227 40.333 39.87 69.575 84.124 90.534 137.012 32.622 82.32 35.172 181.592 6.86 267.099-11.787 35.598-24.455 61.078-49.096 98.748-15.042 22.996-15.546 24.085-15.546 33.6 0 8.168.867 11.067 5.115 17.112 7.109 10.115 14.764 14.211 26.555 14.211 13.462 0 20.636-5.226 34.319-25 37.205-53.765 61.386-110.66 73.734-173.487 6.868-34.947 8.423-51.849 8.427-91.589.004-52.3-5.681-88.797-21.373-137.212-25.595-78.965-66.637-142.657-128.541-199.479C749.923 108.376 657.26 66.44 563.2 56.506c-19.221-2.03-55.766-3.288-72.533-2.497m5.12 354.469c-10.424 2.722-20.707 7.913-28.261 14.267-3.122 2.626-30.946 31.929-61.832 65.116-56.036 60.212-62.579 68.535-62.579 79.606 0 11.063 10.336 25.75 20.943 29.758 10.935 4.131 24.02 1.556 32.52-6.4 2.694-2.522 29.047-30.505 58.563-62.185 60.613-65.056 58.562-63.566 70.35-51.123 3.375 3.562 28.936 31.045 56.802 61.073 32.276 34.779 52.895 55.658 56.805 57.523 11.628 5.545 28.972 2.399 36.963-6.705 8.502-9.686 10.6-23.635 5.281-35.121-3.943-8.515-114.831-127.816-125.748-135.288-4.734-3.241-12.063-7.108-16.287-8.594-10.504-3.695-32.944-4.689-43.52-1.927" fill-rule="evenodd"/></svg>