<svg width="28" height="28" viewBox="0 0 28 28" fill="none" xmlns="http://www.w3.org/2000/svg">
<path d="M5.87027 10.8858C6.26342 6.74196 9.75339 3.5 14.0001 3.5C18.2666 3.5 21.7694 6.77234 22.1352 10.9439C24.7886 11.9392 26.6771 14.4982 26.6771 17.5C26.6771 21.3661 23.5432 24.5 19.6771 24.5C19.0159 24.5 18.3739 24.4078 17.7653 24.2353C17.1454 24.0596 16.7853 23.4146 16.961 22.7947C17.1366 22.1748 17.7816 21.8147 18.4015 21.9904C18.8056 22.1049 19.2335 22.1667 19.6771 22.1667C22.2545 22.1667 24.3437 20.0774 24.3437 17.5C24.3437 15.2973 22.8168 13.4483 20.7623 12.9598C20.2779 12.8446 19.9366 12.4429 19.8752 11.9771C19.848 11.8783 19.8334 11.7742 19.8334 11.6667C19.8334 8.44525 17.2215 5.83333 14.0001 5.83333C10.7787 5.83333 8.16675 8.44525 8.16675 11.6667C8.16675 12.0689 7.96316 12.4236 7.6534 12.6334C7.50351 12.7896 7.30843 12.906 7.08215 12.9598C5.02745 13.4484 3.50008 15.2975 3.50008 17.5C3.50008 20.0774 5.58933 22.1667 8.16675 22.1667C8.61031 22.1667 9.03834 22.1049 9.44322 21.9903C10.0632 21.8148 10.708 22.1751 10.8836 22.7951C11.0591 23.415 10.6987 24.0599 10.0788 24.2354C9.46982 24.4078 8.82801 24.5 8.16675 24.5C4.30067 24.5 1.16675 21.3661 1.16675 17.5C1.16675 14.4376 3.13266 11.8364 5.87027 10.8858ZM13.1738 11.382C13.6279 10.9264 14.3651 10.9244 14.8218 11.3775L18.9821 15.5051C19.4395 15.9589 19.4424 16.6976 18.9886 17.155C18.5348 17.6124 17.7961 17.6153 17.3387 17.1615L15.1667 15.0066V22.1667C15.1667 22.811 14.6444 23.3333 14.0001 23.3333C13.3557 23.3333 12.8334 22.811 12.8334 22.1667V15.0286L10.7809 17.0876C10.326 17.5439 9.58735 17.5451 9.13101 17.0902C8.67468 16.6353 8.67351 15.8966 9.1284 15.4403L13.1738 11.382Z" fill="#000000"/>
</svg>
